<?xml version="1.0" encoding="UTF-8"?><svg id="Calque_2" xmlns="http://www.w3.org/2000/svg" viewBox="0 0 581.92 154.56"><defs><style>.cls-1{fill:#e84f96;}.cls-1,.cls-2{stroke-width:0px;}.cls-2{fill:#4dbcbf;}</style></defs><g id="Calque_1-2"><path class="cls-2" d="m0,34.56c2.22-2.43,2-5.74,2.88-8.61,2.25-7.37,3.89-14.92,5.76-22.41.53-2.14,2.04-2.89,4.05-2.89,9.77.03,19.53.15,29.3.09,3.51-.02,5.33,2.2,7.18,4.57,4.86,6.23,9.67,12.49,14.61,18.66,2.52,3.14,3.39,3.05,5.99-.03,5.51-6.54,11.07-13.04,16.53-19.62,1.87-2.26,3.95-3.29,7.03-3.2,8.85.25,17.71.28,26.56.09,3-.06,4.54,1.15,5.7,3.63,1.53,3.28,3.23,6.49,4.89,9.71,1.09,2.11,1.56,4.28,1.55,6.7-.16,35.78-.24,71.56-.34,107.34q-.02,6.39-6.47,6.37c-8.46-.02-16.93-.1-25.39-.02-2.2.02-3.56-.56-4.55-2.7-1.73-3.74-3.93-7.26-5.75-10.96-1.21-2.45-1.81-5.06-1.79-7.87.1-10.11.09-20.22.08-30.33,0-1.1.55-2.62-.71-3.19-1.65-.75-2.19,1.12-2.87,1.99-2.64,3.36-5.21,6.79-7.53,10.37-1.95,3.01-3.33,3.19-5.52.14-4.69-6.52-9.65-12.83-14.5-19.24-.39-.52-.67-1.14-1.12-1.58-.72-.69-1.19-2.1-2.35-1.77-1.5.43-.89,1.97-.9,3.04-.1,18.93-.15,37.85-.21,56.78-.02,5.09-.02,5.1-5.29,5.09-8.85-.02-17.71-.17-26.56-.04-3.06.04-4.56-1.25-6-3.82-4.45-7.9-5.99-16.15-5.67-25.23.55-16.06.2-32.14.31-48.22.02-3.04-.41-5.7-2.14-8.42-2.59-4.07-3.92-8.86-6.76-12.85v-1.56Zm92.25,7.71c0,1.95,0,3.34,0,4.74-.05,21.52-.02,43.03-.25,64.55-.04,3.85,1.22,4.89,4.91,4.76,6.63-.24,13.28-.12,19.92.01,2.68.06,3.67-.85,3.68-3.58.16-34.47.38-68.94.66-103.41.02-2.87-1.04-3.9-3.9-3.86-7.42.11-14.85.25-22.26-.1-3.87-.19-6.31,1.27-8.58,4.09-5.69,7.07-11.59,13.97-17.31,21.01-1.82,2.24-2.94,2.58-4.93-.07-5.59-7.47-11.49-14.7-17.3-22.01-1.36-1.71-2.59-3.52-5.26-3.5-8.98.07-17.97.02-26.95-.03-1.84,0-2.73.66-3.22,2.55-2.02,7.74-4.24,15.44-6.4,23.14-.74,2.63,1.15,2.35,2.69,2.44,5.39.32,5.41.31,5.37,5.66-.18,24.1-.3,48.2-.65,72.3-.05,3.82,1.18,4.92,4.89,4.77,6.11-.25,12.25-.24,18.35.07,3.82.2,5.16-.74,5.13-4.86-.16-20.74.02-41.48.09-62.21,0-1.04-.04-2.08.08-3.11.2-1.68,1.12-2.01,2.32-.85,1.01.99,1.86,2.15,2.73,3.28,6.05,7.93,12.23,15.76,18.05,23.86,2.24,3.11,3.41,2.12,5.1-.21,6-8.28,12.06-16.52,18.1-24.78,1.2-1.64,2.17-3.51,4.93-4.68Z"/><path class="cls-2" d="m270.94,76.29c0,18.27-.08,36.54.07,54.81.03,3.51-.9,4.8-4.61,4.68-8.84-.28-17.7-.21-26.55-.11-2.36.03-3.94-.51-4.9-2.77-.7-1.66-1.59-3.27-2.6-4.76-4.15-6.15-5.34-12.86-4.9-20.23.48-8.14.16-16.32.14-24.49,0-1.08.53-2.61-.94-3.04-1.13-.33-1.77.95-2.36,1.74-2.87,3.83-5.76,7.66-8.45,11.62-1.64,2.41-2.67,2.53-4.49.03-5.1-7.01-10.44-13.85-15.74-20.71-.64-.83-1.06-2.43-2.56-1.93-1.44.49-.96,1.97-.97,3.06-.07,11.92-.05,23.84-.15,35.76-.06,7.25-.4,14.5-.39,21.74,0,2.7-.99,3.79-3.62,3.74-10.02-.17-20.03-.3-30.05-.42-1.62-.02-2.41-.81-3.24-2.23-5-8.58-7.39-17.54-6.82-27.67.72-12.92-.29-25.94.42-38.86.48-8.56-.4-16.45-5.25-23.54-2.98-4.36-2.8-8.71-1.46-13.45,2.43-8.55,4.69-17.14,6.99-25.72.46-1.73,1.74-2.17,3.25-2.17,10.41.01,20.83.07,31.24.11,2.06,0,3.27,1.3,4.43,2.78,5.42,6.94,10.94,13.8,16.29,20.79,2.03,2.66,3.37,2.34,5.36-.12,5.28-6.55,10.84-12.88,16.2-19.37,2.1-2.54,4.35-3.88,7.93-3.75,8.84.34,17.7.23,26.55.13,2.35-.03,3.9.59,5.01,2.72,3.75,7.23,7.03,14.26,6.64,23-.72,16.17-.21,32.39-.21,48.58-.09,0-.19,0-.28,0Zm-89.19-32.24c1.03,1.22,1.9,2.15,2.66,3.16,6.41,8.47,12.85,16.92,19.17,25.46,1.91,2.58,3.28,2.84,5.15-.03,1.97-3.04,4.27-5.86,6.42-8.78,4.6-6.26,9.21-12.53,13.79-18.8.61-.83,1.06-2.01,2.33-1.6,1.13.36.65,1.54.72,2.38.07.9.02,1.81.02,2.72-.06,21.39-.07,42.78-.24,64.18-.02,3.13.83,4.42,4.18,4.33,6.9-.2,13.8-.13,20.7.02,2.74.06,3.61-.94,3.61-3.62.04-34.62.15-69.23.3-103.85.01-2.53-.87-3.41-3.4-3.39-8.2.09-16.41.03-24.61-.05-2.14-.02-3.64.73-4.99,2.41-5.79,7.15-11.74,14.18-17.57,21.31-3.64,4.46-3.67,4.43-7.1-.01-5.7-7.39-11.55-14.66-17.3-22.01-1.32-1.69-2.95-2.25-5.08-2.23-8.33.07-16.67.06-25-.06-2.41-.04-3.87.54-4.54,3.09-1.97,7.49-4.16,14.92-6.22,22.39-.6,2.18.72,2.61,2.58,2.73,5.57.36,5.59.41,5.55,5.91-.18,24.11-.32,48.22-.63,72.32-.04,3.41.99,4.57,4.44,4.46,6.5-.21,13.03-.21,19.53.06,3.54.15,4.39-1.16,4.38-4.48-.06-21,.06-42.01.17-63.01,0-1.51-.44-3.12.98-5Z"/><path class="cls-1" d="m392.56,39.71c-.85-2.67,1-3.69,2.62-4.53,3.19-1.64,6.58-2.29,10.2-1.36,2.76.71,5.74.77,8.33,1.83,3.84,1.57,5.06-.69,5.73-3.43,1.31-5.3,3.41-10.28,5.79-15.13,2.05-4.18,4.4-8.24,8.21-11.21,2.52-1.96,5.26-2.93,8.29-1.45,2.88,1.4,3.74,3.89,3.75,7.04.04,8.92-3.03,16.97-6.92,24.72-1.31,2.62-.52,2.85,1.67,2.95,6.37.28,12.72.53,18.88-1.6,1.08-.37,2.24-.79,3.26.25-2.4,3.76-6.58,1.96-9.82,2.94-3.86,1.17-8.19,1.72-12.32.86-2.76-.58-4.14.54-5.22,2.74-3.63,7.46-7.89,14.53-13.16,20.97-1.94,2.37-2.03,5.32-2.38,8.07-.91,7.21-1.12,14.47-.54,21.72.19,2.37.79,4.85,3.25,5.68,2.73.93,4.92-.35,6.75-2.64,7.82-9.73,14.05-20.31,18.18-32.12,1.59-4.55,4.4-8.45,8.26-11.54,7.99-6.4,16.36.18,17.6,7.35.66,3.87.47,7.77-.31,11.59-.66,3.19.46,3.99,3.6,4.07,3.95.11,7.22-1.93,10.88-2.64,2.1-.41,1.56-2.45.95-3.88-2.4-5.61.99-9.93,3.27-14.43.59-1.16,1.98-2.09,3.64-.95,2.34,1.61,4.4,3.29,3.77,6.58-.44,2.29-1.89,4.19-2.22,6.58-.51,3.76.57,5.29,4.27,4.67,2.79-.47,5.55-1.31,8.23-2.27,1.6-.57,2.92-1.01,4.25.4,1.3,1.39.86,2.77.25,4.3-2.14,5.31-3.21,10.87-3.51,16.57-.07,1.39-.32,3.09,1.37,3.7,1.48.54,2.72-.32,3.79-1.41,7.98-8.18,14.36-17.29,16.38-28.78.35-1.99,1.2-3.66,1.9-5.45.84-2.13,2.25-3.74,4.66-3.08,2.48.68,4.43,2.18,4.2,5.28-.32,4.28-2.68,8.13-2.57,12.5.04,1.68-.2,3.37-.08,5.04.11,1.52.25,3.17,2.17,3.75,1.7.52,3.07-.11,4.29-1.19,3.23-2.86,4.67-6.85,6.2-10.62,2.27-5.6,4.58-11.3,4.1-17.58-.11-1.5.47-2.79,1.2-4.03,1.72-2.91,3.83-3.17,6.3-.93,2.58,2.34,3.17,5.5,2.85,8.54-.93,8.74-1.94,17.48-3.78,26.1-.22,1.04-1.09,2.4.28,3.17,1.25.69,2.1-.52,3.05-1.15,4.55-3.01,8.78-6.39,12.56-10.33.76-.79,1.35-1.92,2.99-2.19-.19,2.61-2.11,3.83-3.56,5.21-3.94,3.77-8.29,7.08-12.83,10.08-2.98,1.97-4.04,4.61-4.69,8-3.12,16.33-6.09,32.79-15.57,46.99-4.72,7.07-11.11,11.25-20.32,10.41-8.04-.73-12.93-5.83-13.91-13.86-.78-6.43,2.96-10.68,5.85-15.17,6.5-10.1,15.93-17.49,26.18-23.34,6.86-3.91,9.09-9.37,9.39-16.3.1-2.29,1.95-5.86-.14-6.66-2.29-.87-3.01,3.1-4.61,4.78-1.25,1.31-2.39,2.7-3.86,3.79-4.61,3.43-10.08,2.1-12.55-3.1-.65-1.37-1.3-2.75-2.08-4.4-3.02,2.26-4.19,5.82-6.44,8.52-3.41,4.08-6.59,8.35-11.39,10.99-5.94,3.28-10.7.72-10.98-6.06-.17-4.13.21-8.22,1.67-12.21,1.59-4.34.89-4.33-3.38-5.25-5.51-1.19-10.23-.14-15.29,1.79-2.86,1.09-6.25,1.59-9.57.93-2.64-.53-4.1,1.21-4.87,3.37-2.03,5.73-6.5,8.92-11.81,10.98-4.01,1.56-10.05-2.17-12.14-7.03-.64-1.48-.69-3.3-2.63-4.43-2.53,3.88-5.01,7.76-7.57,11.6-2.53,3.79-5.4,7.3-9.1,10.01-5.18,3.78-11.22,1.98-13.65-3.91-2.63-6.4-1.36-13.03-1.23-19.58.09-4.15-.43-4.03-4.32-3.24-6.9,1.39-6.39,7.22-7.98,11.69-3.42,9.62-12.84,14.66-22.36,11.6-4.84-1.55-6.77-6.48-4.25-10.96,3.11-5.53,8.3-8.08,14.21-9.08,5.92-1.01,6.74-2.1,6.12-8.15-1.1-10.78-6.72-19.68-11.55-28.92-4.12-7.89-7.37-15.87-6.08-25.12,1.05-7.53,7.74-15.77,14.51-17.14,9.99-2.03,18.25,1.12,22.4,8.92,3.18,5.97,3.65,12.2.4,19.08-1.54-2.67-.35-4.78-.18-6.78.46-5.21-.25-10.1-3.6-14.27-3.63-4.52-10.7-6.97-15.37-4.87-5.68,2.56-8.9,7.29-9.83,13.5-1.3,8.69,2.09,16.31,5.79,23.71,5.49,10.98,11.23,21.82,12.65,34.27.11.96.45,1.69,1.61,1.86,2.94.44,7.97-2.78,8.67-5.76,1.25-5.29,1.49-10.74,2.42-16.1.71-4.07,1.86-8.03,2.5-12.11.36-2.31.05-3.7-2.42-4.32-4.67-1.16-9.37-2.22-14.21-1.95-2.9.16-5.67.98-7.4,3.92Zm129.5,110.04c5.91.06,12.51-3.81,15.82-9.82,6.13-11.14,8.58-23.45,10.91-35.77.18-.93.61-2.16-.71-2.72-.99-.42-1.69.32-2.42.85-4.43,3.17-9.12,6.03-13.25,9.55-8.3,7.07-16.29,14.39-19.21,25.65-1.84,7.11,1.5,12.19,8.87,12.27Zm-90.07-111.12c1.3-.17,3.17.73,4.04-1.11,3.79-8.04,7.14-16.22,7.76-25.22.07-.98.31-2.2-.94-2.69-1.17-.46-2.35-.19-3.24.69-1.01.99-2.02,2.01-2.81,3.17-4.28,6.24-6.87,13.23-8.69,20.49-1.08,4.3-.77,4.52,3.88,4.69Zm20.15,40.68c.07,1.32-.06,2.67.25,3.9.72,2.82,1.84,5.54,4.91,6.52,3,.96,4.81-1.26,6.66-3.04,1.8-1.73,2.55-4.16,3.88-6.16,1.2-1.79.43-2.77-.66-3.46-3.94-2.48-6.77-5.79-8.81-9.94-.98-2-2.13-1.89-3.12.3-1.72,3.81-2.94,7.72-3.12,11.89Zm-72.57,18.55c.3-.06,1.34-.14,2.31-.47,4.07-1.39,9.82-9.95,9.62-14.16-.06-1.26-.59-1.97-1.87-1.92-4.31.16-13.19,2.76-15.81,8.27-2.26,4.75-.24,8.29,5.76,8.28Zm91.96-30.11c-.18-3.48.64-6.98-2.03-9.74-.83-.86-1.86-1.64-3.05-1.39-1.19.25-1.98,1.3-2.09,2.53-.46,4.9-.76,9.78,1.61,14.39.8,1.55,2.09,1.83,3.57,1.64,1.5-.18,1.7-1.36,1.75-2.59.07-1.68.16-3.35.24-4.84Zm-42.48-27c-1.35-.55-2.93-.43-3.49,2.05-1.06,4.76-2.74,9.38-2.97,14.31-.04.84-.51,1.94.74,2.26.96.24,1.26-.76,1.63-1.36,2.53-4.16,5.08-8.31,7.49-12.53,2.1-3.69,1.57-4.5-3.4-4.73Z"/><path class="cls-2" d="m331.84,76.53c0,18.27-.09,36.54.07,54.81.03,3.73-1.12,5.05-4.91,4.91-9.23-.33-18.47-.39-27.71-.41-2.44,0-3.87-.84-4.72-3.12-.68-1.8-1.69-3.48-2.61-5.18-2.32-4.26-3.69-8.61-3.61-13.64.29-17.75.04-35.51.33-53.25.07-4.45-.85-8.34-3-12.11-1.08-1.9-1.62-4.19-2.99-5.83-3.69-4.41-1.84-8.95-.68-13.44,2.01-7.85,4.35-15.61,6.27-23.48.65-2.66,1.82-3.72,4.49-3.69,9.37.09,18.74.16,28.11.07,2.52-.02,3.83,1.26,4.83,3.19,1.54,2.98,2.9,6.06,4.57,8.97,1.34,2.33,1.89,4.72,1.88,7.39-.05,18.27-.03,36.54-.03,54.81-.1,0-.2,0-.3,0Zm-38.83-.63c-.07,0-.14,0-.21,0,0,12.44.09,24.89-.07,37.33-.04,3.1.91,4.06,4,3.97,6.63-.19,13.28-.17,19.91.08,3.14.12,3.99-.93,3.98-3.98-.09-15.16,0-30.33.09-45.49.12-19.05.26-38.09.53-57.14.05-3.2-.97-4.35-4.24-4.26-7.16.18-14.32.09-21.48-.01-2.21-.03-3.64.37-4.23,2.86-1.64,6.89-3.48,13.75-5.33,20.59-1.24,4.57-1.31,4.78,3.27,4.62,3.29-.12,3.86,1.23,3.83,4.12-.13,12.44-.06,24.88-.06,37.33Z"/></g></svg>